<svg width="140" height="140" xmlns="http://www.w3.org/2000/svg">
 <!-- Created with Method Draw - http://github.com/duopixel/Method-Draw/ -->

 <g>
  <title>background</title>
  <rect x="-1" y="-1" width="142" height="142" id="canvas_background" fill="#fff"/>
  <g id="canvasGrid" display="none">
   <rect id="svg_1" width="100%" height="100%" x="0" y="0" stroke-width="0" fill="url(#gridpattern)"/>
  </g>
 </g>
 <g>
  <title>Layer 1</title>
  <g id="svg_25" stroke="null">
   <g id="svg_4" transform="matrix(1.6666174964554208,0,0,1.4361037308518494,0.06148566362418251,54.30651345249005) " stroke="null">
    <path d="m43.464,-14.95013c1.671,3.192 2.617,6.819 2.617,10.664c0,1.798 -0.207,3.548 -0.598,5.228c4.028,-3.427 9.243,-5.498 14.934,-5.498c0.051,0 0.101,0.001 0.151,0.002c1.753,-3.069 2.757,-6.619 2.757,-10.399c0,-3.439 -0.83,-6.688 -2.3,-9.556c-7.343,0.02 -13.813,3.823 -17.561,9.559z" id="svg_5" stroke="null" fill="#004f7f"/>
    <path d="m42.32,-16.89713c3.967,-5.53 10.312,-9.242 17.528,-9.625c-3.767,-5.696 -10.228,-9.461 -17.553,-9.461c-7.007,0 -13.224,3.446 -17.048,8.731c7.139,0.691 13.335,4.648 17.073,10.355z" id="svg_6" stroke="null" fill="#004f7f"/>
    <path d="m60.708,19.58987c-5.87,-0.094 -11.214,-2.39 -15.241,-6.098c0.262,1.387 0.4,2.817 0.4,4.279c0,4.336 -1.203,8.396 -3.292,11.866c3.646,5.83 10.067,9.754 17.399,9.906c1.845,-3.127 2.905,-6.769 2.905,-10.653c0,-3.337 -0.782,-6.493 -2.171,-9.3z" id="svg_7" stroke="null" fill="#004f7f"/>
    <path d="m62.935,19.52187c1.278,2.864 1.99,6.035 1.99,9.369c0,3.806 -0.928,7.4 -2.566,10.568c10.688,-0.983 19.088,-9.998 19.088,-20.939c0,-2.979 -0.624,-5.814 -1.746,-8.385c-3.859,5.264 -9.892,8.838 -16.766,9.387z" id="svg_8" stroke="null" fill="#004f7f"/>
    <path d="m62.829,-4.43013c7.126,0.744 13.299,4.744 16.997,10.482c1.462,-2.863 2.287,-6.103 2.287,-9.531c0,-10.829 -8.228,-19.771 -18.76,-20.907c1.296,2.881 2.018,6.075 2.018,9.434c0,3.787 -0.918,7.365 -2.542,10.522z" id="svg_9" stroke="null" fill="#004f7f"/>
    <path d="m41.337,31.48487c-3.886,5.242 -9.938,8.787 -16.822,9.299c3.795,5.514 10.149,9.137 17.334,9.137c6.857,0 12.957,-3.299 16.799,-8.393c-7.187,-0.547 -13.465,-4.403 -17.311,-10.043z" id="svg_10" stroke="null" fill="#004f7f"/>
    <path d="m21.359,-5.25713c-1.372,-2.95 -2.139,-6.234 -2.139,-9.695c0,-3.707 0.88,-7.211 2.44,-10.318c-10.971,0.696 -19.683,9.841 -19.683,20.984c0,3.142 0.694,6.125 1.935,8.805c3.921,-5.569 10.242,-9.333 17.447,-9.776z" id="svg_11" stroke="null" fill="#004f7f"/>
    <path d="m61.695,-2.47013c-2.881,4.462 -7.259,7.871 -12.418,9.512c5.387,1.836 9.883,5.612 12.652,10.49c6.987,-0.277 13.108,-3.98 16.727,-9.473c-3.434,-5.963 -9.707,-10.092 -16.961,-10.529z" id="svg_12" stroke="null" fill="#004f7f"/>
    <path d="m21.143,18.71387c-7.184,-0.577 -13.45,-4.457 -17.272,-10.117c-1.351,2.774 -2.11,5.888 -2.11,9.175c0,10.985 8.466,20.028 19.216,20.951c-1.412,-2.984 -2.203,-6.317 -2.203,-9.832c0,-3.65 0.854,-7.105 2.369,-10.177z" id="svg_13" stroke="null" fill="#004f7f"/>
    <path d="m40.176,29.59087c-1.806,-3.288 -2.835,-7.062 -2.835,-11.071c0,-1.798 0.207,-3.548 0.598,-5.229c-3.932,3.346 -8.995,5.397 -14.527,5.494c-1.651,3 -2.592,6.444 -2.592,10.105c0,3.579 0.899,6.951 2.483,9.905c7.007,-0.168 13.174,-3.78 16.873,-9.204z" id="svg_14" stroke="null" fill="#004f7f"/>
    <path d="m23.623,-5.28713c5.691,0.203 10.862,2.476 14.784,6.087c-0.261,-1.387 -0.399,-2.818 -0.399,-4.28c0,-4.193 1.125,-8.128 3.088,-11.521c-3.512,-5.907 -9.833,-9.956 -17.107,-10.292c-1.732,3.055 -2.723,6.583 -2.723,10.339c0,3.484 0.852,6.772 2.357,9.667z" id="svg_15" stroke="null" fill="#004f7f"/>
    <path d="m39.673,7.97287c-6.143,0.634 -11.51,3.924 -14.93,8.699c5.991,-0.492 11.279,-3.506 14.796,-7.975c0.11,-0.235 0.226,-0.47 0.345,-0.701c-0.07,-0.007 -0.14,-0.015 -0.211,-0.023z" id="svg_16" stroke="null" fill="#004f7f"/>
    <path d="m39.787,5.40187c-3.438,-4.71 -8.783,-7.944 -14.89,-8.554c3.326,4.888 8.656,8.308 14.8,9.069c0.1,-0.009 0.199,-0.019 0.301,-0.027c-0.073,-0.162 -0.143,-0.325 -0.211,-0.488z" id="svg_17" stroke="null" fill="#004f7f"/>
    <path d="m42.125,4.47087c1.227,-2.668 1.912,-5.633 1.912,-8.756c0,-3.028 -0.645,-5.909 -1.803,-8.513c-1.395,2.811 -2.181,5.974 -2.181,9.319c0,2.785 0.546,5.444 1.532,7.879c0.097,0.135 0.191,0.271 0.284,0.407c0.084,-0.113 0.17,-0.225 0.256,-0.336z" id="svg_18" stroke="null" fill="#004f7f"/>
    <path d="m22.248,16.72887c2.876,-4.619 7.338,-8.152 12.62,-9.833c-5.26,-1.793 -9.67,-5.436 -12.454,-10.149c-7.324,0.129 -13.747,4.021 -17.413,9.823c3.565,5.889 9.936,9.898 17.247,10.159z" id="svg_19" stroke="null" fill="#004f7f"/>
    <path d="m44.471,5.96487c6.032,-0.623 11.313,-3.806 14.741,-8.44c-6.209,0.353 -11.707,3.41 -15.328,8.012c-0.057,0.119 -0.113,0.237 -0.172,0.354c0.254,0.02 0.508,0.046 0.759,0.074z" id="svg_20" stroke="null" fill="#004f7f"/>
    <path d="m44.087,8.89087c3.539,4.848 9.097,8.132 15.427,8.602c-3.304,-5.104 -8.756,-8.69 -15.065,-9.472c-0.24,0.022 -0.48,0.041 -0.722,0.056c0.125,0.268 0.245,0.54 0.36,0.814z" id="svg_21" stroke="null" fill="#004f7f"/>
    <path d="m41.298,9.76387c-1.227,2.667 -1.911,5.633 -1.911,8.756c0,3.221 0.729,6.275 2.029,9.008c1.534,-2.918 2.403,-6.236 2.403,-9.756c0,-2.785 -0.545,-5.444 -1.533,-7.879c-0.178,-0.25 -0.35,-0.504 -0.518,-0.761c-0.152,0.214 -0.309,0.423 -0.47,0.632z" id="svg_22" stroke="null" fill="#004f7f"/>
   </g>
  </g>
 </g>
</svg>