<svg width="120" height="120" xmlns="http://www.w3.org/2000/svg">
 <g>
  <title>background</title>
  <rect x="-1" y="-1" width="62" height="62" id="canvas_background" fill="none"/>
 </g>

 <g>
  <title>Layer 1</title>
  <polygon points="90.30661010742188,29.82640266418457 48.82761001586914,29.82640266418457 48.82761001586914,25.855402946472168 90.30661010742188,25.855402946472168 90.30661010742188,29.82640266418457 " id="svg_1" fill="#d08011"/>
  <polygon points="90.30661010742188,42.17840385437012 48.82761001586914,42.17840385437012 48.82761001586914,38.206403732299805 90.30661010742188,38.206403732299805 90.30661010742188,42.17840385437012 " id="svg_2" fill="#004f7f" stroke="#004f7f"/>
  <path d="m37.101611,11.631403l0,28.314l-0.515,0c-2.549,0 -3.856,1.923 -3.932,3.903c-0.023,0.186 -0.04,0.376 -0.04,0.577l-0.025,17.024l-2.238,0l0,-11.448c-2.342,1.318 -5.737,4.233 -5.737,9.977l-0.001,5.887l-1.873,0l0,-6.889c-2.237,1.181 -6.56,4.084 -6.56,10.231l0,41.542l24.911,0l0,-10.988c0,0 2.153,-2.019 4.539,-4.785l56.002,0l0,-83.345l-64.531,0zm60.735,79.549l-49.217,0c1.849,-2.619 3.312,-5.39 3.312,-7.604l0,-4.347l38.375,0l0,-3.973l-38.376,0l-0.004,-8.379l38.379,0l0,-3.972l-38.381,0l-0.002,-8.378l38.384,0l0,-3.972l-40.237,0c-2.523,-1.781 -6.736,-0.584 -6.736,3.893l0.01,16.847c0,0.921 -2.434,0.921 -2.434,0l0,-13.074l-0.013,0l0,-42.794l56.939,0l0,75.753l0.001,0z" id="svg_3" stroke="#004f7f" fill="#004f7f"/>
 </g>
</svg>