<svg width="120" height="120" xmlns="http://www.w3.org/2000/svg">

 <g>
  <title>background</title>
  <rect fill="none" id="canvas_background" height="122" width="122" y="-1" x="-1"/>
 </g>
 <g>
  <title>Layer 1</title>
  <g id="svg_1">
   <polygon id="svg_2" points="22.600000381469727,27.899999618530273 64.5999984741211,43.70000076293945 64.5999984741211,35.5 22.600000381469727,20.199999809265137 " fill="#004f7f"/>
   <polygon id="svg_3" points="66.29999923706055,35.29999923706055 66.29999923706055,43.70000076293945 97.4000015258789,33.39999961853027 97.4000015258789,25.700000762939453 " fill="#004f7f"/>
   <polygon id="svg_4" points="53.20000076293945,15.900000095367432 89,26.200000762939453 92.5,25.200000762939453 53.20000076293945,13.5 28.600000381469727,19.699999809265137 32.39999961853027,20.899999618530273 " fill="#004f7f"/>
   <polygon id="svg_5" points="22.600000381469727,57.099998474121094 64.5999984741211,74.5 64.5999984741211,71.0999984741211 22.600000381469727,53.70000076293945 " fill="#004f7f"/>
   <polygon id="svg_6" points="66.29999923706055,74.5 97.4000015258789,61.900001525878906 97.4000015258789,58.79999923706055 66.29999923706055,71.0999984741211 " fill="#004f7f"/>
   <path id="svg_7" d="m25.9,53l38.8,15.8l0,-22.9l-38.8,-14.5l0,21.6zm29.8,-4.7l3.6,1.3l0,12.2l-3.6,-1.6l0,-11.9zm-8.8,-3.3l3.6,1.3l0,12.2l-3.6,-1.6l0,-11.9zm-8.5,-3.5l3.6,1.3l0,12.2l-3.6,-1.6l0,-11.9zm-8.2,-3.2l3.6,1.3l0,12.2l-3.6,-1.6l0,-11.9z" fill="#004f7f"/>
   <path id="svg_8" d="m95.1,36.4l-28.8,9.7l0,22.8l28.8,-11.4l0,-21.1zm-19.3,23.2l-3.6,1.6l0,-12.1l3.6,-1.3l0,11.8zm13.1,-4.3l-3.6,1.6l0,-12.2l3.6,-1.3l0,11.9z" fill="#004f7f"/>
   <path id="svg_9" d="m95.1,64.9l-28.8,11.8l0,21.1l28.8,-14.2l0,-18.7zm-19.2,24.2l-3.6,1.6l0,-12.1l3.6,-1.3l0,11.8zm13.1,-6l-3.6,1.6l0,-12.1l3.6,-1.3l0,11.8z" fill="#004f7f"/>
   <polygon id="svg_10" points="66.29999923706055,103.5 97.4000015258789,87.4000015258789 97.4000015258789,84 66.29999923706055,99.5 " fill="#004f7f"/>
   <path id="svg_11" d="m45.6,91.3c0,-0.2 0.2,-0.5 0.4,-0.5l3,-0.9l-11.3,-5.3l-4,1.1l0,2.5l11.8,5.9l0,-2.8l0.1,0z" fill="#004f7f"/>
   <path id="svg_12" d="m33.1,89.1l-3.5,0.5l0,2.9l11.8,6l0,-2.2c0,-0.2 0.2,-0.5 0.4,-0.5l2.8,-0.9l-11.5,-5.8z" fill="#004f7f"/>
   <path id="svg_13" d="m49.5,90.9l-2.8,0.8l0,3.3c0,0 0,0 0,0c0,0 0,0 0,0.1c0,0 0,0.1 0,0.1c0,0 0,0 0,0c0,0 0,0 0,0c0,0 0,0 0,0.1c0,0 0,0 -0.1,0.1c0,0 0,0 0,0c0,0 -0.1,0 -0.1,0.1c0,0 0,0 0,0l-3.7,1.1l0,2l7.4,-2.1l0,-5.5l0,-0.3l-0.7,0.2l0,0z" fill="#004f7f"/>
   <path id="svg_14" d="m25.9,80.2l9,4.1l2.8,-0.7c0.1,0 0.3,0 0.4,0l0.4,0.2l0,-14.4l5.2,2.2l0,14.5l0.9,0.5l0,-14.6l6.1,2.5l0,15l0.2,0.1c0,0 0,0 0.1,0c0,0 0,0 0,0c0,0 0,0 0,0c0.1,0 0.1,0.1 0.1,0.2c0,0 0,0 0,0c0,0.1 0,0.1 0,0.2c0,0 0,0 0,0l0,1.6l13.6,6.2l0,-21.1l-38.8,-15.8l0,19.3zm29.8,-2.4l3.6,1.3l0,12.2l-3.6,-1.6l0,-11.9zm-25.5,-11.1l3.6,1.3l0,12.2l-3.6,-1.6l0,-11.9z" fill="#004f7f"/>
   <path id="svg_15" d="m51.1,97c0,0.1 0,0.2 -0.1,0.2l13.6,6.3l0,-4l-13.6,-6.1l0,3.6l0.1,0z" fill="#004f7f"/>
   <path id="svg_16" d="m32.7,88.1l0,-2.8c0,-0.1 0,-0.1 0,-0.2l-10.1,-4.6l0,3.7l8.9,4.1l1.2,-0.2z" fill="#004f7f"/>
  </g>
 </g>
</svg>