<svg width="950" height="800" xmlns="http://www.w3.org/2000/svg">
 <g>
  <title>background</title>
  <rect x="-1" y="-1" width="952" height="802" id="canvas_background" fill="none"/>
 </g>

 <g>
  <title>Layer 1</title>
  <g id="svg_1">
   <g id="svg_2">
    <g id="svg_3">
     <path d="m46.5,724.4c3,6.5 7.1,12.4 12,17.4c10.7,10.7 25.4,17.3 41.7,17.3l712.1,0c16,0 29,-13 29,-29l0,-5.7l-794.8,0zm765.8,-83.5l0,-11.9c0,-124.4 0,-248.7 -0.2,-373.1c0,-8.3 -0.6,-16.8 -2.1,-25c-13.7,-74.1 -73.8,-124.1 -149.3,-124.1c-119.9,0 -239.8,0 -359.6,0c-49.2,0 -98.4,0 -147.5,0l0,237.5c0,3.3 -2.7,5.9 -5.9,5.9l-6.3,0c-3.3,0 -5.9,-2.7 -5.9,-5.9l0,-237.4l-4.9,0c-2.4,0 -4.7,0.1 -7,0.3l0,155.8c0,3.3 -2.7,5.9 -5.9,5.9l-6.3,0c-3.3,0 -5.9,-2.7 -5.9,-5.9l0,-152.3c-13.9,4.6 -25.7,13.5 -35,26.9c-10,14.4 -16.1,29.8 -15.1,48.5c1.4,27.4 0,54.9 0.4,82.3c0.6,50.2 21.2,89.6 64.1,116.6c3.8,2.4 8.8,3.6 13.3,3.7c27.5,0.3 54.9,0.3 82.3,0c4.5,0 9.5,-1.3 13.3,-3.6c37.1,-22.7 57.3,-56.3 63.7,-100.2l7.8,0c60.8,0 121.5,0 182.3,0c29.1,0 47.7,18.5 47.8,47.8c0.1,66.7 0.1,133.3 0,200c0,4.3 -1.1,8.9 -2.5,13c-12,32.7 -29.6,62 -52.4,88.4c-4.4,5.1 -8.8,7.2 -15.6,7.2c-97.1,-0.2 -269.2,-0.2 -359.4,-0.2c-32.6,0 -59,26.4 -59,59c0,3.2 0.3,6.3 0.7,9.3l799.3,0l0,-39.5c-0.2,-16 -13.2,-29 -29.2,-29zm-140.2,-445c44.6,0.3 80.7,37 80.5,81.9c-0.2,45.4 -36.5,81.5 -81.9,81.2c-45.2,-0.3 -81.3,-36.8 -81.2,-82.2c0,-44.6 37.5,-81.3 82.6,-80.9zm96.5,414.6c0,6.6 -5.4,12 -12,12l-170.9,0c-6.6,0 -12,-5.4 -12,-12l0,-9.9c0,-6.6 5.4,-12 12,-12l170.9,0c6.6,0 12,5.4 12,12l0,9.9zm0,-55.9c0,6.6 -5.4,12 -12,12l-170.9,0c-6.6,0 -12,-5.4 -12,-12l0,-9.9c0,-6.6 5.4,-12 12,-12l170.9,0c6.6,0 12,5.4 12,12l0,9.9zm0,-55.9c0,6.6 -5.4,12 -12,12l-170.9,0c-6.6,0 -12,-5.4 -12,-12l0,-9.9c0,-6.6 5.4,-12 12,-12l170.9,0c6.6,0 12,5.4 12,12l0,9.9zm0,-56c0,6.6 -5.4,12 -12,12l-170.9,0c-6.6,0 -12,-5.4 -12,-12l0,-9.9c0,-6.6 5.4,-12 12,-12l170.9,0c6.6,0 12,5.4 12,12l0,9.9z" id="svg_4" fill="#004f7f"/>
    </g>
    <g id="svg_5">
     <path d="m222.8,402.3l0,18.9c0,3.6 -2.9,6.5 -6.5,6.5l-9.7,0l0,9.2c0,3.6 -2.9,6.5 -6.5,6.5l-20.2,0l0,96.9l-11.5,27.2l0,-124.1l-21.3,0c-3.6,0 -6.5,-2.9 -6.5,-6.5l0,-9.2l-8.6,0c-3.6,0 -6.5,-2.9 -6.5,-6.5l0,-18.9c0,-3.6 2.9,-6.5 6.5,-6.5l84.5,0c3.4,0 6.3,2.9 6.3,6.5z" id="svg_6" fill="#d08011"/>
    </g>
   </g>
   <g id="svg_7">
    <g id="svg_8">
     <g id="svg_9">
      <path d="m341.8,51.9l-45.1,0c-2.1,0 -3.8,-1.4 -3.8,-3.1l-7.1,-6.7c0,-1.7 1.7,-3.1 3.8,-3.1l59.4,0c2.1,0 3.8,1.4 3.8,3.1l-7.1,6.7c-0.1,1.7 -1.8,3.1 -3.9,3.1z" id="svg_10" fill="#004f7f"/>
     </g>
    </g>
    <g id="svg_11">
     <g id="svg_12">
      <path d="m296.7,86l45.1,0c2.1,0 3.8,1.4 3.8,3.1l7.1,6.7c0,1.7 -1.7,3.1 -3.8,3.1l-59.4,0c-2.1,0 -3.8,-1.4 -3.8,-3.1l7.1,-6.7c0.1,-1.7 1.8,-3.1 3.9,-3.1z" id="svg_13" fill="#004f7f"/>
     </g>
    </g>
    <g id="svg_14">
     <g id="svg_15">
      <rect x="294.771471" y="55.150321" transform="matrix(1,0.002263795,-0.002263795,1,0.3563,-0.7722) " width="48.5" height="1.8" id="svg_16" fill="#004f7f"/>
     </g>
    </g>
    <g id="svg_17">
     <g id="svg_18">
      <rect x="294.771471" y="61.050321" transform="matrix(1,0.002263795,-0.002263795,1,0.3696,-0.7721) " width="48.5" height="1.8" id="svg_19" fill="#004f7f"/>
     </g>
    </g>
    <g id="svg_20">
     <g id="svg_21">
      <rect x="294.771472" y="67.55032" transform="matrix(1,0.002263779,-0.002263779,1,0.3842,-0.7721) " width="48.5" height="1.8" id="svg_22" fill="#004f7f"/>
     </g>
    </g>
    <g id="svg_23">
     <g id="svg_24">
      <rect x="294.771472" y="73.95032" transform="matrix(1,0.002263779,-0.002263779,1,0.3989,-0.772) " width="48.5" height="1.8" id="svg_25" fill="#004f7f"/>
     </g>
    </g>
    <g id="svg_26">
     <g id="svg_27">
      <rect x="294.771471" y="80.450321" transform="matrix(1,0.002263795,-0.002263795,1,0.4135,-0.7719) " width="48.5" height="1.8" id="svg_28" fill="#004f7f"/>
     </g>
    </g>
   </g>
   <g id="svg_29">
    <g id="svg_30">
     <g id="svg_31">
      <path d="m584.8,51.9l-45.1,0c-2.1,0 -3.8,-1.4 -3.8,-3.1l-7.1,-6.7c0,-1.7 1.7,-3.1 3.8,-3.1l59.4,0c2.1,0 3.8,1.4 3.8,3.1l-7.1,6.7c-0.1,1.7 -1.8,3.1 -3.9,3.1z" id="svg_32" fill="#004f7f"/>
     </g>
    </g>
    <g id="svg_33">
     <g id="svg_34">
      <path d="m539.7,86l45.1,0c2.1,0 3.8,1.4 3.8,3.1l7.1,6.7c0,1.7 -1.7,3.1 -3.8,3.1l-59.4,0c-2.1,0 -3.8,-1.4 -3.8,-3.1l7.1,-6.7c0.1,-1.7 1.8,-3.1 3.9,-3.1z" id="svg_35" fill="#004f7f"/>
     </g>
    </g>
    <g id="svg_36">
     <g id="svg_37">
      <rect x="537.771471" y="55.150321" transform="matrix(1,0.002263795,-0.002263795,1,0.3569,-1.3223) " width="48.5" height="1.8" id="svg_38" fill="#004f7f"/>
     </g>
    </g>
    <g id="svg_39">
     <g id="svg_40">
      <rect x="537.771471" y="61.050321" transform="matrix(1,0.002263795,-0.002263795,1,0.3702,-1.3222) " width="48.5" height="1.8" id="svg_41" fill="#004f7f"/>
     </g>
    </g>
    <g id="svg_42">
     <g id="svg_43">
      <rect x="537.771472" y="67.55032" transform="matrix(1,0.002263779,-0.002263779,1,0.3849,-1.3221) " width="48.5" height="1.8" id="svg_44" fill="#004f7f"/>
     </g>
    </g>
    <g id="svg_45">
     <g id="svg_46">
      <rect x="537.771472" y="73.95032" transform="matrix(1,0.002263779,-0.002263779,1,0.3995,-1.3221) " width="48.5" height="1.8" id="svg_47" fill="#004f7f"/>
     </g>
    </g>
    <g id="svg_48">
     <g id="svg_49">
      <rect x="537.771471" y="80.450321" transform="matrix(1,0.002263795,-0.002263795,1,0.4142,-1.322) " width="48.5" height="1.8" id="svg_50" fill="#004f7f"/>
     </g>
    </g>
   </g>
   <g id="svg_51">
    <path d="m914.8,334.4l0,39.2c0,1.9 -4.6,0.2 -8.6,-2.7l-13.3,-9.4c-0.6,-0.5 -1.1,-1.2 -1.1,-1.8l0,-0.7l-33.5,0l0,15c0,6.6 -5.4,12 -12,12l-14,0c-6.6,0 -12,-5.4 -12,-12l0,-112c0,-6.6 5.4,-12 12,-12l14,0c6.6,0 12,5.4 12,12l0,86l33.5,0c0.1,-0.5 0.5,-1.1 1.1,-1.5l13.3,-9.4c4,-2.9 8.6,-4.6 8.6,-2.7z" id="svg_52" fill="#004f7f"/>
   </g>
  </g>
 </g>
</svg>